/* XPM */
static char *_b6a2d11d7794f47b8fb0cd35a4e44f7[] = {
/* columns rows colors chars-per-pixel */
"50 50 185 2 ",
"   c None",
".  c #00793E",
"X  c #007D3F",
"o  c #0A7A3E",
"O  c #1F7F3D",
"+  c #008943",
"@  c #019344",
"#  c #009146",
"$  c #009346",
"%  c #009547",
"&  c #009D4A",
"*  c #199442",
"=  c #299C42",
"-  c #319C46",
";  c #00A04A",
":  c #00A14A",
">  c #00A04B",
",  c #01A04B",
"<  c #00A14B",
"1  c #01A14B",
"2  c #00A24B",
"3  c #02A24B",
"4  c #03A24B",
"5  c #05A24B",
"6  c #07A34A",
"7  c #0BA049",
"8  c #08A34A",
"9  c #0BA34B",
"0  c #0DA349",
"q  c #0AA44A",
"w  c #0BA44A",
"e  c #0AA44B",
"r  c #0CA44A",
"t  c #0DA44A",
"y  c #0CA54B",
"u  c #0EA54A",
"i  c #0FA54A",
"p  c #12A649",
"a  c #13A649",
"s  c #11A54A",
"d  c #11A64A",
"f  c #12A74B",
"g  c #13A74B",
"h  c #15A749",
"j  c #16A749",
"k  c #18A749",
"l  c #14A84B",
"z  c #15A84B",
"x  c #16A94B",
"c  c #17A94B",
"v  c #1AA849",
"b  c #19AA4B",
"n  c #1BAB4B",
"m  c #1DA949",
"M  c #1EA948",
"N  c #1FA948",
"B  c #1DAB4A",
"V  c #1CAB4B",
"C  c #1EAB4A",
"Z  c #1FAC4A",
"A  c #2CA344",
"S  c #2CAC47",
"D  c #2CAD47",
"F  c #20A948",
"G  c #23AA48",
"H  c #25AB48",
"J  c #26AB48",
"K  c #21AC4A",
"L  c #22AD4A",
"P  c #23AD4A",
"I  c #25AE4A",
"U  c #26AE4A",
"Y  c #28AB48",
"T  c #28AC48",
"R  c #28AE4A",
"E  c #2BA94E",
"W  c #30AE47",
"Q  c #31AE47",
"!  c #32AE47",
"~  c #34AF47",
"^  c #36AF46",
"/  c #37AF46",
"(  c #3CAD45",
")  c #2AB04A",
"_  c #2CB149",
"`  c #2DB14A",
"'  c #2FB04A",
"]  c #2FB14A",
"[  c #2FB24A",
"{  c #38B046",
"}  c #3AB046",
"|  c #3BB146",
" . c #3CB146",
".. c #32B249",
"X. c #30B24A",
"o. c #31B24A",
"O. c #31B34A",
"+. c #32B34A",
"@. c #33B34A",
"#. c #34B34A",
"$. c #35B34A",
"%. c #37B549",
"&. c #36B44A",
"*. c #37B44A",
"=. c #39B449",
"-. c #38B549",
";. c #39B549",
":. c #38B44A",
">. c #39B44A",
",. c #38B54A",
"<. c #39B54A",
"1. c #39B64A",
"2. c #4A9E48",
"3. c #42B245",
"4. c #43B345",
"5. c #40B246",
"6. c #45B345",
"7. c #47B445",
"8. c #48B445",
"9. c #49B445",
"0. c #4CB544",
"q. c #4CB545",
"w. c #4EB544",
"e. c #53B744",
"r. c #5AB943",
"t. c #5EBA43",
"y. c #5FBA43",
"u. c #7DA849",
"i. c #78AF4B",
"p. c #63BB43",
"a. c #68BC42",
"s. c #6ABD42",
"d. c #6FBE42",
"f. c #75C041",
"g. c #CDAF1F",
"h. c #ECB118",
"j. c #FEB213",
"k. c #FEB313",
"l. c #FEB214",
"z. c #FEB314",
"x. c #C4AE20",
"c. c #C6AF20",
"v. c #AE9A43",
"b. c #B29942",
"n. c #88A246",
"m. c #A8A548",
"M. c #BAA648",
"N. c #AAB14C",
"B. c #AABB54",
"V. c #DC9740",
"C. c #DC9741",
"Z. c #DD9741",
"A. c #DC9841",
"S. c #DD9841",
"D. c #DD9941",
"F. c #DF9B42",
"G. c #E09E43",
"H. c #E09F43",
"J. c #D4A345",
"K. c #D6B54C",
"L. c #E4A546",
"P. c #E4A646",
"I. c #E8AE49",
"U. c #E9AF49",
"Y. c #E9B049",
"T. c #E9B04A",
"R. c #E9B14A",
"E. c #EAB14A",
"W. c #EAB24A",
"Q. c #EBB34B",
"!. c #EBB44B",
"~. c #EBB54B",
"^. c #ECB64C",
"/. c #E8B94D",
"(. c #EDB84C",
"). c #EEB94D",
"_. c #EEBA4D",
"`. c #F0BD4F",
"'. c #B0C057",
"]. c #F3C153",
"[. c #F7CC5B",
"{. c #F8C858",
"}. c #FDCF5D",
"|. c #FED15E",
" X c #FFD25F",
/* pixels */
"                                                                                                    ",
"                                                                                                    ",
"                                                                                                    ",
"                                                                                                    ",
"                                                                                                    ",
"                                                                                                    ",
"                                                z.z.k.k.                                            ",
"                                                c.c.g.h.                                            ",
"                                            < < < < < < <                                           ",
"                                          < < < < 3.< < < <                                         ",
"                                          < < < < d.< < < < <                                       ",
"                                <.<.<.    < < < < r < M } < <                                       ",
"                              &.b M ]     < ^ ^ < < < Y 7.< < <                                     ",
"                              $.g M l O.  < S M < < < < q q Q <                                     ",
"                              <.<.<.O.<.< < < < <  .< < < M e.<                                     ",
"                              <.l O.P <.< < < < < f.< q < 8 M <                                     ",
"                              <.l $.P <.< < 8 M < r < w.g < < <                                     ",
"                              <.<.&.] <.< < b Q < < < ^ q < <                                       ",
"                              <.g ] l <.< < < < < < < < < F h                                       ",
"                              <.I O.P <.< < < < H g < < < S k       <.<.<.                          ",
"                              <.] ] ] &.< g M < } g < 3.h < <     <.<.<.<.<.                        ",
"                                ] l P $.< Q 9.< < < < w.r < <     <.M <.Z <.                        ",
"                                  &.<.$.< H } 5 r < < < < < <     <.l <.l <.                        ",
"                                    <.] < < < H 9.< F < g < <     <.&.<.<.<.                        ",
"                                        < < < h Q 5 y.< 3.M <     <.g O.I <.                        ",
"                                        < < < < < q } < } F <   <.<.) <.r <.                        ",
"                                        < r ^ < < < < < < <     <.I &.<.O.<.                        ",
"                                        < 8 w.< g 6.< < < <     $.q ] b <.                          ",
"                                        < < < < k  .< b r <   <.&.O.M O.<.                          ",
"                                        < < < < < < <  .T < O.] l &.<.<.                            ",
"                                        < < k < 9.< M F q < <.Z I T <.                              ",
"                                        < < a.< y.< p.< < < <.<.<.                                  ",
"                                        < < r.< < < F < ^ <                                         ",
"                                        8 < < < r < < 5 a.<                                         ",
"                                   X X}.[.'.E 8 ( & = < F <                                         ",
"                                 X{.`.).).)./.i.* + A @ &                                           ",
"                              B.].).).).).).).).m.o X % 0                                           ",
"                              N.^.E.~.).).).).~.).M.O . @                                           ",
"                            @ K.E.~.~.).).).E.~.E.).v.< <                                           ",
"                            - ).~.~.E.).).).^.E.).).S.2.<                                           ",
"                            u.).).).E.E.).).).I.~.H.S.b.J.                                          ",
"                            n.~.~.P.S.S.H.I.E.P.S.S.S.                                              ",
"                              Z.S.S.S.S.S.S.S.S.S.Z.S.  P.S.                                        ",
"                                          Z.Z.S.                                                    ",
"                                                                                                    ",
"                                                                                                    ",
"                                                                                                    ",
"                                                                                                    ",
"                                                                                                    ",
"                                                                                                    "
};
