/* XPM */
static char *_6b8f1a27c2f4bf29076db9985fe2192[] = {
/* columns rows colors chars-per-pixel */
"50 50 163 2 ",
"   c None",
".  c #181D22",
"X  c #1D2125",
"o  c #1F2826",
"O  c #1F2428",
"+  c #232426",
"@  c #212A27",
"#  c #21262B",
"$  c #252A2E",
"%  c #2B2A29",
"&  c #29372B",
"*  c #242B32",
"=  c #292E33",
"-  c #2B3135",
";  c #273039",
":  c #2C3538",
">  c #30373F",
",  c #304230",
"<  c #364B34",
"1  c #3B5737",
"2  c #3D6232",
"3  c #436F2F",
"4  c #447A26",
"5  c #467C28",
"6  c #497E2C",
"7  c #48673F",
"8  c #44613C",
"9  c #487633",
"0  c #46713C",
"q  c #4D7E32",
"w  c #2D3841",
"e  c #303B45",
"r  c #334043",
"t  c #35424B",
"y  c #39464B",
"u  c #3D4B4D",
"i  c #3C5241",
"p  c #3D4A56",
"a  c #3D4C59",
"s  c #404D4F",
"d  c #475B4C",
"f  c #434F52",
"g  c #424E59",
"h  c #455255",
"j  c #485457",
"k  c #44535C",
"l  c #49555B",
"z  c #4E5A5D",
"x  c #505C5F",
"c  c #486A4F",
"v  c #4C6D41",
"b  c #4F7949",
"n  c #547D46",
"m  c #5C7F5A",
"M  c #465762",
"N  c #4A5764",
"B  c #4A5965",
"V  c #4B5C6C",
"C  c #515E64",
"Z  c #535F6C",
"A  c #4D5F70",
"S  c #4F6961",
"D  c #4F606D",
"F  c #4C6462",
"G  c #566265",
"H  c #596467",
"J  c #55656F",
"K  c #5C676A",
"L  c #5B6869",
"P  c #57726B",
"I  c #5E7E6E",
"U  c #4E6071",
"Y  c #526475",
"T  c #5A6775",
"R  c #5A6972",
"E  c #546778",
"W  c #56697A",
"Q  c #5A6C7D",
"!  c #616E7C",
"~  c #4C822F",
"^  c #4E8231",
"/  c #528635",
"(  c #568A3A",
")  c #5A8C3E",
"_  c #5D923F",
"`  c #5D8F41",
"'  c #5C854D",
"]  c #5F8A4C",
"[  c #5E9043",
"{  c #5D8456",
"}  c #628F4E",
"|  c #619245",
" . c #619844",
".. c #65964B",
"X. c #659B49",
"o. c #699B4D",
"O. c #679651",
"+. c #689752",
"@. c #6D9C53",
"#. c #709F56",
"$. c #69A04D",
"%. c #6FA454",
"&. c #70A457",
"*. c #74A35B",
"=. c #76AD5A",
"-. c #78AF5B",
";. c #76B058",
":. c #79B15D",
">. c #7DAA64",
",. c #7EB661",
"<. c #80AC67",
"1. c #82AE6A",
"2. c #82BC65",
"3. c #86B16E",
"4. c #85BF68",
"5. c #85AE72",
"6. c #8AB472",
"7. c #87C26A",
"8. c #89C46B",
"9. c #8DC86E",
"0. c #8ECA70",
"q. c #92CE73",
"w. c #93D074",
"e. c #5C6F81",
"r. c #5E7184",
"t. c #607486",
"y. c #637789",
"u. c #64788B",
"i. c #6A7D8E",
"p. c #6A7E91",
"a. c #6C7F93",
"s. c #6D8093",
"d. c #6E8295",
"f. c #6E8295",
"g. c #708497",
"h. c #718497",
"j. c #728699",
"k. c #74889B",
"l. c #768A9D",
"z. c #75899C",
"x. c #788B9F",
"c. c #7A8B9B",
"v. c #768D95",
"b. c #7B8FA2",
"n. c #798DA0",
"m. c #7D90A4",
"M. c #7F91A5",
"N. c #829F90",
"B. c #849E9E",
"V. c #8394A4",
"C. c #8296A9",
"Z. c #8597A8",
"A. c #8396A9",
"S. c #869AAD",
"D. c #8699AC",
"F. c #899CB0",
"G. c #8C9FB3",
"H. c #8EA1B5",
"J. c #90A4B7",
"K. c #90A3B6",
"L. c #92A5B9",
"P. c #94A7BB",
"I. c #92A5B9",
/* pixels */
"                                                                                                    ",
"                                                                                                    ",
"                                                                                                    ",
"                                                                                                    ",
"                                                                                                    ",
"                                                                                                    ",
"                                                                                                    ",
"                                    L K K                                                           ",
"                              K K K C h h j h     j.y.y.y.u.                                        ",
"                          K K K K K K h r r r u Z.H.u.j.A.J.J.x.                                    ",
"                        K K K K K K K x h J E s.H.P.b.r.y.j.P.D.                                    ",
"                      K G u z C j h R c.b.u.u.u.u.m.H.y.U r.k.D.b.u.                                ",
"                    K K x r r l i.H.H.i.E Y E Q t.u.g.f.e.V Q u.u.u.y.                              ",
"                  K K K h l V.P.P.P.b.p.E V V V V Q u.u.u.E V U E E Q Y H K                         ",
"                K K K K k y.i.D.P.P.P.P.P.A.u.E Y U Y r.u.y.V V V V V V N K j                       ",
"                K K K G r.u.u.u.f.A.P.D.f.e.W u.u.u.y.r.r.y.e.V V V V U V h z f                     ",
"                s y h R r.E Y Y E r.e.E V E u.u.r.r.y.u.u.u.u.E V V V E t.V h K                     ",
"                r r l t.e.V V V V V V V r.u.a.b.f.E V U E y.u.u.E V V V r.b.x.C K                   ",
"                r V m.u.t.E V V V V E y.y.r.i.P.P.G.j.Y V V Q z.g.r.Y V U A.P.K.J K                 ",
"                M m.z.y.U x.g.r.r.y.u.r.U V Q T l g N Z V V V Y j.D.j.r.E E p.b.V.K K               ",
"                u.P.f.Q V z.P.P.H.p.e.V a ; . . O O . . . * t V U p.P.y.y.Q e.u.x.z K K             ",
"                k.P.p.Y V s.P.P.b.r.p * X = = $ = - - = $ # O . e Y F.j.E u.r.y.t.M G K K           ",
"              j D.P.u.V V u.b.P.u.t . O = # . . . . . O O $ - * O * j.b.V r.u.u.E D s K x           ",
"              z Z.F.y.V V u.t.b.B . O # . . . . X O . . . . O = = # k b.E V t.u.r.V r x h           ",
"            K C i.u.u.V U u.E y.* . . . . . . O . . O O O . . X - O # t.r.V U y.u.A y r y           ",
"            x x Q u.y.E E u.U B . . . . . O + O . . . . + % + . # $ . y u.Y V E u.E k r r           ",
"          K y y i.u.Q t.Q u.A w # . . % + . . . . . . . . . O . . = O O y.r.V V W E V r z           ",
"          K y C D.u.Y t.y.e.V - O . + . . . . . . . . . . . . . . O $ . Z g.E V V V V t G K         ",
"          K u Q P.u.Y E y.E M $ . . . . . . . . . . . . . . . . O . # . * F.t.V V V V y H K         ",
"          9 4 n B.z.Y V Q i.p # . . . + . . . . . . . . O + . . + % . O . c.f.Y S { c u x K         ",
"        4 6 ) | ^ v.U V V m.= X . . O + . . . . . . . . . + + . . + + . . C m.P ) #.>.3 i H         ",
"        4 *.<...5 I A V Q ! . . . . + . . . . . . . . . . . + + . . + . . : N.5.| ( ` #.4 d         ",
"      4 ^ / [ 6 6 b V V A.> . . . + . . . . . . . . . . . . . + . . . . X q @.o.( 6.3.6...2         ",
"      | 3.@.| [ >...F V j.. O . . O . . . . . . . . . . . . . . . . . . . ^ ....*.@./ >.4 1         ",
"      4 / / / @.@.*.m V g . # . . . . o @ o @ & , 1 7 n } @.%.&.+.n 8 < & *.>.>.( ) / ^ 4 '         ",
"      ( ..<.( ^ 6 #.0 V u v ' ] O.&.=.=.=.=.=.=.=.=.=.=.=.=.=.=.=.=.=.=. .4 ^ ) [ <.3.@.( =.        ",
"      *.6.*.| o.#.) ..=.=.=.=.=.=.=.=.=.=.=.=.=.:.,.2.7.9.q.q.q.9.8.8.8.;.4 @...` ( 3.~ $.2.        ",
"      | ^ ) ( ( ~ $.=.=.:.=.-.:.,.2.7.9.0.q.q.w.w.w.w.w.w.w.w.w.w.w.w.w.w.2.o.| / ( X.%.2.          ",
"            _ X.=.=.:.8.w.w.w.w.w.w.w.w.w.w.w.w.w.w.w.w.w.w.w.w.w.w.w.w.w.w.w.0.4.2.4.0.            ",
"              2.7.9.w.w.w.w.w.w.w.w.w.w.w.w.w.w.w.w.w.w.q.w.                q.w.q.w.                ",
"                    w.q.w.q.w.                                                                      ",
"                                                                                                    ",
"                                                                                                    ",
"                                                                                                    ",
"                                                                                                    ",
"                                                                                                    ",
"                                                                                                    ",
"                                                                                                    ",
"                                                                                                    ",
"                                                                                                    "
};
