/* XPM */
static char *_766e9ec6f664df7b47be0718bb6c421[] = {
/* columns rows colors chars-per-pixel */
"50 50 93 2 ",
"   c None",
".  c #343333",
"X  c #363433",
"o  c #373535",
"O  c gray21",
"+  c #393434",
"@  c #3A3434",
"#  c #3B3434",
"$  c #383636",
"%  c #3C3534",
"&  c #3D3534",
"*  c #3E3534",
"=  c gray22",
"-  c #393939",
";  c #3A3A3A",
":  c gray23",
">  c #3C3C3C",
",  c #423534",
"<  c #4A3735",
"1  c #443D3C",
"2  c #4A3E3C",
"3  c #4C3E3C",
"4  c #4D3E3C",
"5  c #4E3E3C",
"6  c #4F3E3D",
"7  c #503E3D",
"8  c #543F3D",
"9  c #563F3D",
"0  c #7C433E",
"q  c #7C443E",
"w  c gray25",
"e  c #414141",
"r  c gray26",
"t  c #444444",
"y  c gray27",
"u  c #464646",
"i  c gray28",
"p  c #484848",
"a  c #4B4B4B",
"s  c #4C4C4C",
"d  c gray31",
"f  c #505050",
"g  c #515151",
"h  c gray33",
"j  c #555555",
"k  c #565656",
"l  c gray34",
"z  c #585858",
"x  c gray35",
"c  c #5A5A5A",
"v  c #5B5B5B",
"b  c gray37",
"n  c #5F5F5F",
"m  c #8C433C",
"M  c #9D453C",
"N  c #A7483F",
"B  c #B8483D",
"V  c #BB483D",
"C  c #BC493D",
"Z  c #BE493D",
"A  c #C0493D",
"S  c #C1493D",
"D  c #C34A3D",
"F  c #C74A3E",
"G  c #C94B3E",
"H  c #E74C3C",
"J  c #E84C3C",
"K  c #EC4D3D",
"L  c #ED4E3D",
"P  c #EE4E3E",
"I  c #F14F3E",
"U  c #F24F3F",
"Y  c #F34F3F",
"T  c #B94B40",
"R  c #C94C40",
"E  c #D14D40",
"W  c #D94F41",
"Q  c #DB4F41",
"!  c #DC4F41",
"~  c #DD4F41",
"^  c #DF4F41",
"/  c #E04F41",
"(  c #E24F41",
")  c #E35041",
"_  c #E45041",
"`  c #E75041",
"'  c #F75040",
"]  c #F75140",
"[  c #F95242",
"{  c #FC5241",
"}  c #FE5242",
"|  c #FE5342",
" . c #FF5342",
/* pixels */
"      b b b b b b b b b b b b b b b b b b b b b b b b b b b b b b b b b b b b b b b b b b b b       ",
"    b b c l l l l l l l l l l l l l l l l l l l l l l l l l l l l l l l l l l l l l l l l c b b     ",
"  b c a a a a a a t a a t a a a a a t t a a a a t a a a a a t t a t a a t a a a a a t t a a d c b   ",
"b b a a a a a a a a a a a a a a a a a t a a a a t t a a a a a t a a a a a a a a a a a t a a a a b b ",
"l c a a a a t t a a a a a a a a a a t t a a a a a a a a a a a a a a a a a a a a a a t t a a a a c l ",
"b l a t t r r r r r r r r r r r r r r r r r r r r r r r r r r r r r r r r r r r r r r r r t t a l b ",
"b l t - - - - - - - - - - - - - - - - - - - - - - - - - - - - - - - - - - - - - - - - - - - > t l b ",
"b l > - - - - - - - > > > > > > > > > - > > > > > > > - - - - - - - > > > > > > > > > - > - - > l b ",
"b g - - > > > > > > > > > > > > > > > > > > > > > > > > > > > > > > > > > > > > > > > > > > > - g b ",
"b d > > > > > > > > > > > > > > > > > > > > > > > > > > > > > > > > > > > > > > > > > > > > > > d b ",
"b d > > > > > > > > > > > > > > > > > > > > > > - > > > > > > > > > > > > > > > > > > > > > > > d b ",
"b g > > > > > > > > > > > > > > > > > > > > > > - > > > > > > > > > > > > > > > > > > > > > > > g b ",
"b g > > > > > > > > > > > > > > > > > > > > > > > > > > > > > > > > > > > > > > > > > > > > > > g b ",
"b g > > > > > > > > > > > > > > > > > > > > > > > > > > > > > > > > > > > > > > > > > > > > > > g b ",
"b g > > > > > > > > > > > > > > > > > > > > > > > > > > > > > > > > > > > > > > > > > > > > > > g b ",
"b g > > > > > > > > > > > > > > > > > > > > > > > > > > > > > > > > > > > > > > > > > > > > > > g b ",
"b g > > > > > > > > > > > > > > > > > > > > > > > > > > > > > > > > > > > > > > > > > > > > > > g b ",
"b g > > > > > > > > > > > > > > > > > > > > > - O O - > > > > > > > > > > > > > > > > > > > > > g b ",
"b g > > > > > > > > > > > > > > > > > > > > - . < < . - > > > > > > > > > > > > > > > > > > > > g b ",
"b g > > > > > > > > > > > > > > > > > > > - % V [ [ A , - > > > > > > > > > > > > > > > > > > > g b ",
"b g > > > > > > > > > > > > > > > > > > - @ A  .] ]  .F @ - > > > > > > > > > > > > > > > > > > g b ",
"b g > > > > > > > > > > > > > > > > > - @ A  .Y H H Y  .G % - > > > > > > > > > > > > > > > > > g b ",
"b g > > > > > > > > > > > > > > > > - @ A  .Y H H H H Y  .C X - > > > > > > > > > > > > > > > > g b ",
"b g > > > > > > > > > > > > > > > - % A  .Y H H H H H H Y  .V @ - > > > > > > > > > > > > > > > g b ",
"b g > > > > > > > > > > > > > > > @ A  .Y H H H H H H H H Y  .C O > > > > > > > > > > > > > > > g b ",
"b g > > > > > > > > > > > > > > > m  .Y H H H H H H H H H H Y  .M > > > > > > > > > > > > > > > g b ",
"b g > > > > > > > > > > > > > > > R  .J H H H H H H H H H H J  .Q > > > > > > > > > > > > > > > g b ",
"b g > > > > > > > > > > > > > > > N  .L H H H H H H H H H H L  .T > > > > > > > > > > > > > > > g b ",
"b g > > > > > > > > > > > > > > > 6 _  .L H H H H H H H H L  .( 6 > > > > > > > > > > > > > > > g b ",
"b g > > > > > > > > > > > > > > > > 9 _  .L H H H H H H L  .( 7 > > > > > > > > > > > > > > > > g b ",
"b g > > > > > > > > > > > > > > > > > 9 )  .L H H H H L  .( 6 > > > > > > > > > > > > > > > > > g b ",
"b g > > > > > > > > > > > > > > > > > > 6 ~  .L H H L  .( 7 > > > > > > > > > > > > > > > > > > g b ",
"b g > > > > > > > > > > > > > > > > > > > 6 Q  .Y Y  .~ 6 > > > > > > > > > > > > > > > > > > > g b ",
"b g > > > > > > > > > > > > > > > > > > > > 2 E  . .~ 6 > > > > > > > > > > > > > > > > > > > > g b ",
"b g > > > > > > > > > > > > > > > > > > > > > 1 0 q 1 > > > > > > > > > > > > > > > > > > > > > g b ",
"b g > > > > > > > > > > > > > > > > > > > > > > > > > > > > > > > > > > > > > > > > > > > > > > g b ",
"b g > > > > > > > > > > > > > > > > > > > > > > > > > > > > > > > > > > > > > > > > > > > > > > g b ",
"b g > > > > > > > > > > > > > > > > > > > > > > > > > > > > > > > > > > > > > > > > > > > > > > g b ",
"b g > > > > > > > > > > > > > > > > > > > > > > > > > > > > > > > > > > > > > > > > > > > > > > g b ",
"b g > > > > > > > > > > > > > > > > > > > > > > > > > > > > > > > > > > > > > > > > > > > > > > g b ",
"b g > > > > > > > > > > > > > > > > > > > > > > > > > > > > > > > > > > > > > > > > > > > > > > g b ",
"b g > > > > > > > > > > > > > > > > > > > > > > > > > > > > > > > > > > > > > > > > > > > > > > g b ",
"b g > > > > > > > > > > > > > > > > > > > > > > > > > > > > > > > > > > > > > > > > > > > > > > g b ",
"b g > > > > > > > > > > > > > > > > > > > > > > > > > > > > > > > > > > > > > > > > > > > > > > g b ",
"b g > > > > > > > > > > > > > > > > > > > > > > > > > > > > > > > > > > > > > > > > > > > > > > g b ",
"b l > > > > > > > > > > > > > > > > > > > > > > > > > > > > > > > > > > > > > > > > > > > > > > l b ",
"b b r > > > > > > > > > > > > > > > > > > > > > > > > > > > > > > > > > > > > > > > > > > > > r b b ",
"  b c r > > > > > > > > > > > > > > > > > > > > > > > > > > > > > > > > > > > > > > > > > > r c b   ",
"    b b l g g g g g g g g g g g g g g g g g g g g g g g g g g g g g g g g g g g g g g g g l b b     ",
"      b b b b b b b b b b b b b b b b b b b b b b b b b b b b b b b b b b b b b b b b b b b b       "
};
