/* XPM */
static char *_c6ff4e49a534f219307e24d30fd7475[] = {
/* columns rows colors chars-per-pixel */
"50 50 26 1 ",
"  c #219853",
". c #219A54",
"X c #229D56",
"o c #23A158",
"O c #23A258",
"+ c #24A359",
"@ c #24A45A",
"# c #24A75C",
"$ c #24A85C",
"% c #26AD5F",
"& c #27AE60",
"* c #27B061",
"= c #27B363",
"- c #28B162",
"; c #28B463",
": c #29B564",
"> c #29BA66",
", c #2ABC67",
"< c #2ABB68",
"1 c #2ABD68",
"2 c #2BC36B",
"3 c #2CC36C",
"4 c #2CC76E",
"5 c #2DCA6F",
"6 c #2ECB70",
"7 c #2ECC71",
/* pixels */
"-->11111,:--$@@@@@@@@@@@@@@@#@@#%--$@@@@@@@@@@$*--",
"->11111111:-%@@@@@@@@@@@@@@@@@@$--$@@@@@@@@@@@@%--",
">1111111111:*#@@@@@@@@@@@@@@@@@%-&#@@@@@@@@@@@@$*-",
"11111124567766667777%@@@@@@@@:7766766666522;$@@#*>",
"111136411>::::::>>::$@@@@@@@@%>:::::::::>1154*@$:1",
"11126>@XX           @@@@@@@@$@          .XX$35&&:1",
"11144+              @@@@@@@$-$              %61-;1",
"1115>.  XXXXXXXXXXX.@@@@@@$-;*oXXXXXX.....  X44--:",
">117:  X:11:------&$@@@@@$-;>111111>-&$@@o   45---",
"->17:  X1,:--------*$@@$&-->11111111>-&$@@   45$%-",
"*;,7:  X,;-----------------,11111111>---&&.  44@@@",
"$&:7:  X;-&$@@$*----------->11111111>-----.  44@@@",
"@$%6>  X-&$@@@@$------------>111111>-----%.  44@@@",
"@@@6>  X%#@@@@@@%------------>1111>-----&#   44@@@",
"@@@6>  X$@@@@@@@@&-----&$$%&-->11>-----&$@   44@@@",
"@@@6:  .#@@@@@@@@$---&$@@@@@$--::-----&$@@   44@@@",
"@@@6:  X$@@@@@@@@$-*%$@@@@##$%-------&#@@@   45@@@",
"@@@6:  X&$@@@@@@$&-$@@@@@@@@@@%------$@@@@   45@@@",
"@@@6:  X-%@@@@@$*-$@@@@@@@@@@@@%----&@@@@@   45@@@",
"@@@6:  X--$@@#%-&$@@@@@@@@@@@@@@%---%@@@@@   45@@@",
"@@@%$@@$---&&---$@@@@@#@#@@@@@@@@&--$@@@@@@@@$$@@@",
"@@@@@@@&-------%@@@@@@#@@@@@@@@@@$*-&@@@@@@@@@@@@@",
"@@@@@@$-------&#@@@@@@@@@@@@@@@@@@$--$@@@@@@@@@@@@",
"@@@@@$--------%@@@@@@@@@@@@@@@@@@@@&--$@@@@@@@@@@@",
"@@@@$*--------$@@@@@@@@@@@@@@@@@@@@$--*$@@@@@@@@@@",
"@@@$*---------&@@@@@@@@@@@##@@@@@@@$---*$@@@@@@@@@",
"@#$&-----**----$@@#@@@@@@@@##@@@@@@&----&$@@@@@@@@",
"@$*-----$$$$&--&$@@@@@##@@@@@@@@@@%------*$@@@@@@@",
"$&-----$@@@@@%--$#@@@@@@@@@@@@@@@$--------*$@@@@@@",
"---<;#@o@@@@@@$*-$@@@@@@@@@@@@@@$&--;>>>>-$@o**@$$",
"---6:  .@@@@@@@$--$@@@@@@#@@@@@$&--:>1111>.  45&*-",
"---6:  .@@@@@@@@$-*$@@@@#@@@@@$---:1111111.  45---",
"---6:  .@@@@@@@@@%-&$@@@@@@@@$---:,1111111.  45---",
"---6:  .@@@@@@@@@$--&$@@@@@#%---;>11111111.  45---",
"---6:  .@@@@#@@@@$---*%@@$$*---->111111111.  45---",
"---6:  .@@@@@@@@@--------------:1111111111.  45---",
"---6:  .@@@@#@@$&--------------:1111111111.  45---",
"---6:  .@@@@@@@%---------------->111111111.  45---",
"---6:  .@@@@@@$*----------------;111111111.  45---",
":--6:  .$@@@@$*------------------:11111111.  46>11",
"1:-6:  X&$$#$&-----&$##$$---------:,111111.  46111",
"11:7>  .&-**------%@@@@@@$&--------;>1111*. .46111",
"11151X  ........... @@@@@@$--$............  +54111",
"11144#              @@@@@@@$&#             .*62111",
"111>43%.            @@@@@@@@$@            X*551111",
"11>->654444444444444$@@@@@@@@*44444444444446511111",
"1>---:25555555445555$@@@@@@@@*55555555544441-:1111",
">-----------&$@@@@@@@#@@@@@@@@@%-----&$@@@@$&-:>11",
"----;:>:----$@@@@@@@@@@@@@@@@@@$*---&$@@@@@@#&-;::",
"---;,111:---$@@@@@@@@@@@@@@@@@#@%---$@@@@@@@@@*---"
};
