/* XPM */
static char *_a532355ce55417297b607ea03d8c5fb[] = {
/* columns rows colors chars-per-pixel */
"50 50 3 1 ",
"  c None",
". c #515151",
"X c gray32",
/* pixels */
"                                                  ",
"                                                  ",
"                                                  ",
"                                                  ",
"                                                  ",
"                                                  ",
"                                                  ",
"                                                  ",
"                                                  ",
"                                                  ",
"                          ...........             ",
"                        ..............            ",
"                        ... ..........            ",
"                        ..............            ",
"                        ..............            ",
"                        ..............            ",
"                        ..............            ",
"                        ........                  ",
"                        .......                   ",
"                        ...........               ",
"                       .......                    ",
"          ..           .......                    ",
"          ..         .........                    ",
"          ...      ..............                 ",
"          ....    ............ ..                 ",
"          .....  ............. ..                 ",
"          ....................                    ",
"          ....................                    ",
"           ...................                    ",
"            .................                     ",
"             ...............                      ",
"              .............                       ",
"               ............                       ",
"                 .........                        ",
"    ..........   ..... ...   ...................  ",
"                 ....  ...                        ",
"                 ...    ..                .       ",
"        ..       ..     ..                        ",
"                 ...    ...                       ",
"    ..       .   ...    ...          ..           ",
"                                                  ",
"                                                  ",
"                                                  ",
"                                                  ",
"                                                  ",
"                                                  ",
"                                                  ",
"                                                  ",
"                                                  ",
"                                                  "
};
