/* XPM */
static char *f47c1cdd29784eb9a04ca21a5a7e0d88[] = {
/* columns rows colors chars-per-pixel */
"50 50 68 1 ",
"  c None",
". c #708688",
"X c #718789",
"o c #71888A",
"O c #72888A",
"+ c #758C8E",
"@ c #768D8F",
"# c #799193",
"$ c #799294",
"% c #7B9395",
"& c #7B9496",
"* c #7C9597",
"= c #7D9698",
"- c #7E9799",
"; c #80999B",
": c #819A9C",
"> c #819B9D",
", c #829B9D",
"< c #829C9E",
"1 c #839C9E",
"2 c #839D9F",
"3 c #849EA0",
"4 c #859FA1",
"5 c #86A0A2",
"6 c #87A1A3",
"7 c #87A2A4",
"8 c #88A3A5",
"9 c #89A4A6",
"0 c #89A5A7",
"q c #8AA5A7",
"w c #8AA6A8",
"e c #8BA6A8",
"r c #8BA7A9",
"t c #8CA7A9",
"y c #8CA8AA",
"u c #8DA9AB",
"i c #8FACAE",
"p c #90ACAE",
"a c #90ADAF",
"s c #91ADAF",
"d c #91AEB0",
"f c #92AEB0",
"g c #92AFB1",
"h c #93AFB1",
"j c #93B0B2",
"k c #94B1B3",
"l c #95B2B4",
"z c #95B3B5",
"x c #96B3B5",
"c c #96B4B6",
"v c #97B5B7",
"b c #98B6B8",
"n c #99B7B9",
"m c #99B8BA",
"M c #9AB8BA",
"N c #9AB9BB",
"B c #9BB9BB",
"V c #9BBABB",
"C c #9CBABB",
"Z c #9BB9BC",
"A c #9BBABC",
"S c #9BBBBC",
"D c #9BBABD",
"F c #9BBBBD",
"G c #9CBABC",
"H c #9CBBBC",
"J c #9CBABD",
"K c #9CBBBD",
/* pixels */
"   DHHDHHHHHHHHHHHHHHHHHHHHHHHHHHHHHHHHHHHHHHCH   ",
" VDblgssssssssssssssssssssssssssssssssssssssglbD  ",
" Dje999999999999999999999999999999999999999999elD ",
"Dbe99999999999999999999999999999999999999999999yV ",
"Dj997<>>>>>>>>>>>>>>>>>>>>>>>>>>>>>>>>>>>>>><89ebD",
"bg99<@@@@@@@@@@@@@@@@@@@@@@@@@@@@@@@@@@@@@@@@599cc",
"Hs99>@@@@@@@@@@@@@@@@@@@@@@@@@@@@@@@@@+@@@@@@599cH",
"Hs99>@@@@@@@@@@+@@@@@@@@@@@@@@@@@@@@@@++@@@@@599cH",
"Hs99>@@@@@@@@@@+@@++@@@@@@@@@@@@@@@@@@@+@@@@@599cH",
"Hs99>@@@@@@@@@@+@@@+@@@@@@@@@@+@@@++@@@@@@@@@599cH",
"Hs99>@@@@@@@@@@@@@@@@@++@@@@@@++@@@@@@@@@@@@@599cH",
"Hs99>@@@@@@@@@@@@@@@@@+@@@@@@@++@@@@@@@@@@@@@599cH",
"Hs99>@@@@@@@@@@@@@@@@@@@@@@@@@@@+++@@@@+@@@@@599cH",
"Hs99>@@@@@@@@@++@@+@@@@@@@@@@@@@+@@@@++@@@@@@599cH",
"Hs99>@@@@+++@@@@@@++@@@@@@@@@+@@@@@@@@@@@@@@@599cH",
"Hs99>@@@@@++@@@@@@@@@@@+++@@@+@@@@@@@@@@@@@@@599cH",
"Hs99>@@@@@@@++@@@@@@@@@@@@@@@@@@@++@@@+++@@@@599cH",
"Hs99>@@@+@@@@++@@@@@@@@@+@@@@@++@@+@@@@@@@@@@599cH",
"Hs99>@@@++@@@@@@@@@@@@+++@@@@@+@@@@@@@@@@@@@@599cH",
"Hs99>@@@@@@@@@@@@+++@@@++@@@@@@@@@@@@@@@@@@@@599cH",
"Hs99>@@@@@@@@@@@@@++@@@@@@@@@@@@+@@@@@@@@+@@@599cH",
"Hs99>@@@@@@@@@@@@@+@@@@@@@@@@@@@++@@@@@@++@@@599cH",
"Hs99>@@@+@@@@@@@@@@@@@@@++@@@@@+@+@@@@@@@@@@@599cH",
"Hs99>@@++@@@@@@@@@@@@@@@@+@@@@++@@@@@@@@@@@@@599cH",
"Hs99>@@@@@@@@@@@@@@@@@@@@@@@@@@@@@@@@@@@@@@@@599cH",
"Hs99>@@@@@@@@@@@@@@@@@@@@@@@@@@@@@@@@@@@@@@@@599vH",
"Hs995>>>>>>>>>>>>>>>>>>>>>>>>>>>>>>>>>>>>>>>>899vH",
"Hs9999999999999999999999999999999999999999999999vH",
"Hg9999999999999999999999999999999999999999999999bH",
"HVcgssssssssssssssssssssssssssssssssssssssssssgbDH",
"HggVHHHHHHHHHHHHHHHHHHHHHHHHHHHHHHHHHHHHHHHHHHVibH",
"Hy><<<<<<<<<<<<<<<<<<<<<*=<<<<<<<<<<<<<<<<<<<<<>lH",
"Ht>>>>>>>>>>>>>>>>>>>>>>$$>>>>>>>>>>>>>>>>>>>>>>lH",
"Ht>>>>>>>>>;>>>>>>>>>>>>$$>>>>>>>>>>>>>>>>>>>>>>lH",
"Ht>>>>>>>>>>;;>>>>>>>;>>$$>>>>>>>>>>>>>>>>>;>;>>lH",
"Ht>>>>>>>>>>;>>>>>>>>>>>$$>>>>>>>>;>>>>>>>>;>;>>lH",
"Ht>>>>>>>>>>>>>>>>>>>>>>$$>>>>>>>>>>>>>>>>>>>>>>lH",
"Ht>>>>>>>>>>>>>>>>>>>>>>$$>>>>>>>>>>>>>>>>>>>>>>lH",
"e&XXXXXXXXXXXXXXXXXXXXXXXXXXXXXXXXXXXXXXXXXXXXXX4e",
"y*OOOOOOOOOOXOOOOOOOOOOOOOOOOOOOOOOOOXOOOOOOOOOO5y",
"Ht>>>>>>>>>=#;>>>>>>>>>>>>>>>>>>>>>>=#;>>>>>>>>>lH",
"Ht>>>>>>>>>=#;>>>>>>>>>>>>>>>>>>>>>>=#;>>>>>>>>>lH",
"Ht>>>;>>>>>=#;>>>>;>;>>>>;>>>>>>>>>>=#;>>>>>;>>>lH",
"Ht>>>>>>>>>=#;>>>>;>;>>>>>>>>>>>>>>>=#;>>>>>;>>>lH",
"Hy>>>>>>>>>=#;>>>>>>>>>>>>>>>>>>>>>>=#;>>>>>>>>>cH",
"Ds>>>>>>>>>=#;>>>>>>>>>>>>>>>>>>>>>>=#;>>>>>>>>4cH",
"Db4>>>>>>>>=#;>>>>>;>>>>;>>>>>>>>>>>=#;>>>>>>>>eVH",
" Hk8>>>>>>>=#;>>>>>>>>>;;>>>>>>>>>>>=#;>>>>>><9cH ",
"  DVclllllls4klllllllllllllllllllllls4kllllllcVH  ",
"   VHHHHHHHl9VHHHHHHHHHHHHHHHHHHHHHHl9VHHHHHHHH   "
};
